<?xml version="1.0" encoding="UTF-8" standalone="no"?>
<svg
   xmlns:dc="http://purl.org/dc/elements/1.1/"
   xmlns:cc="http://creativecommons.org/ns#"
   xmlns:rdf="http://www.w3.org/1999/02/22-rdf-syntax-ns#"
   xmlns:svg="http://www.w3.org/2000/svg"
   xmlns="http://www.w3.org/2000/svg"
   xmlns:sodipodi="http://sodipodi.sourceforge.net/DTD/sodipodi-0.dtd"
   xmlns:inkscape="http://www.inkscape.org/namespaces/inkscape"
   version="1.1"
   id="svg2"
   viewBox="0 0 263.76952 29.785161"
   height="8.4060345mm"
   width="74.44162mm"
   inkscape:version="0.91 r13725"
   sodipodi:docname="logo.svg">
  <sodipodi:namedview
     pagecolor="#ffffff"
     bordercolor="#666666"
     borderopacity="1"
     objecttolerance="10"
     gridtolerance="10"
     guidetolerance="10"
     inkscape:pageopacity="0"
     inkscape:pageshadow="2"
     inkscape:window-width="1366"
     inkscape:window-height="705"
     id="namedview19"
     showgrid="false"
     fit-margin-top="0"
     fit-margin-left="0"
     fit-margin-right="0"
     fit-margin-bottom="0"
     inkscape:zoom="1.2685914"
     inkscape:cx="112.91523"
     inkscape:cy="-49.923294"
     inkscape:window-x="-8"
     inkscape:window-y="-8"
     inkscape:window-maximized="1"
     inkscape:current-layer="layer1" />
  <defs
     id="defs4" />
  <metadata
     id="metadata7">
    <rdf:RDF>
      <cc:Work
         rdf:about="">
        <dc:format>image/svg+xml</dc:format>
        <dc:type
           rdf:resource="http://purl.org/dc/dcmitype/StillImage" />
        <dc:title></dc:title>
      </cc:Work>
    </rdf:RDF>
  </metadata>
  <g
     id="layer1"
     transform="translate(-1.31697,-2.92861)">
    <g
       transform="translate(-102.85714,-217.14286)"
       id="text4136"
       style="font-style:normal;font-weight:normal;font-size:40px;line-height:125%;font-family:sans-serif;letter-spacing:0px;word-spacing:0px;fill:#000000;fill-opacity:1;stroke:none;stroke-width:1px;stroke-linecap:butt;stroke-linejoin:miter;stroke-opacity:1">
      <path
         id="path4221"
         style="fill:#31ba25;fill-opacity:1"
         d="m 200.7952,249.50507 0,-20.56641 6.32813,0 -0.0781,2.92969 q 0.87891,-1.69922 2.2461,-2.44141 1.38672,-0.76172 3.63281,-0.76172 3.67188,0 5.07813,1.58203 1.40625,1.5625 1.40625,5.89844 l 0,13.35938 -6.52344,0 0,-11.91407 q 0,-2.24609 -0.52735,-2.91015 -0.50781,-0.66407 -2.40234,-0.66407 -1.50391,0 -2.07031,0.74219 -0.56641,0.72266 -0.56641,3.22266 l 0,11.52344 -6.52344,0 z m -4.76562,-6.28907 q -0.23438,3.4961 -2.12891,5.03907 -1.89453,1.52343 -5.95703,1.52343 l -2.7539,0 q -4.51172,0 -6.34766,-1.875 -1.81641,-1.875 -1.81641,-6.5625 l 0,-4.23828 q 0,-4.66797 1.81641,-6.54297 1.83594,-1.89453 6.34766,-1.89453 l 2.7539,0 q 4.51172,0 6.32813,1.89453 1.83593,1.875 1.83593,6.54297 l 0,3.24219 -12.51953,0 0,2.51953 q 0,1.38672 0.56641,1.95313 0.58594,0.5664 2.03125,0.5664 l 0.83984,0 q 1.34766,0 1.89453,-0.46875 0.54688,-0.46875 0.66407,-1.69922 l 6.44531,0 z m -12.44141,-6.30859 6.11328,0 0,-0.72266 q 0,-2.05078 -0.54687,-2.71484 -0.52734,-0.68359 -2.08984,-0.68359 l -0.83985,0 q -1.52344,0 -2.08984,0.66406 -0.54688,0.64453 -0.54688,2.53906 l 0,0.91797 z M 173.2952,243.216 q -0.23437,3.4961 -2.1289,5.03907 -1.89453,1.52343 -5.95703,1.52343 l -2.75391,0 q -4.51172,0 -6.34766,-1.875 -1.8164,-1.875 -1.8164,-6.5625 l 0,-4.23828 q 0,-4.66797 1.8164,-6.54297 1.83594,-1.89453 6.34766,-1.89453 l 2.75391,0 q 4.51172,0 6.32812,1.89453 1.83594,1.875 1.83594,6.54297 l 0,3.24219 -12.51953,0 0,2.51953 q 0,1.38672 0.5664,1.95313 0.58594,0.5664 2.03125,0.5664 l 0.83985,0 q 1.34765,0 1.89453,-0.46875 0.54687,-0.46875 0.66406,-1.69922 l 6.44531,0 z m -12.4414,-6.30859 6.11328,0 0,-0.72266 q 0,-2.05078 -0.54688,-2.71484 -0.52734,-0.68359 -2.08984,-0.68359 l -0.83984,0 q -1.52344,0 -2.08985,0.66406 -0.54687,0.64453 -0.54687,2.53906 l 0,0.91797 z m -25.76172,12.59766 0,-20.56641 6.32812,0 -0.0781,2.92969 q 0.78125,-1.69922 1.95312,-2.44141 1.17188,-0.76172 3.04688,-0.76172 3.10547,0 4.31641,1.58203 1.21093,1.58203 1.21093,5.89844 l 0,1.83594 -6.13281,0 0,-1.3086 q 0,-1.48437 -0.44922,-2.07031 -0.42969,-0.58594 -1.58203,-0.58594 -1.21094,0 -1.66016,0.6836 -0.42968,0.68359 -0.42968,3.28125 l 0,11.52344 -6.52344,0 z m -4.86328,-20 -7.79297,0 q -0.0391,-1.36719 -1.01563,-1.97266 -0.95703,-0.625 -3.125,-0.625 l -1.95312,0 q -2.67578,0 -3.53516,0.97656 -0.85937,0.97656 -0.85937,4.70703 l 0,4.78516 q 0,3.69141 0.85937,4.66797 0.85938,0.97656 3.53516,0.97656 l 2.16797,0 q 2.30469,0 3.20312,-0.64453 0.91797,-0.64453 0.91797,-2.22656 l 0,-1.13282 -4.45312,0 0,-5.42968 12.05078,0 0,4.96093 q 0,5.89844 -2.59766,8.61329 -2.57812,2.69531 -8.16406,2.69531 l -5.29297,0 q -4.92187,0 -7.46094,-3.10547 -2.53906,-3.125 -2.53906,-9.19922 l 0,-4.41406 q 0,-6.79688 2.67578,-9.92188 2.67578,-3.14453 8.45703,-3.14453 l 4.23828,0 q 4.6875,0 7.67579,2.34375 3.00781,2.32422 3.00781,5.85938 l 0,1.23047 z" />
      <path
         id="path4235"
         style="font-style:normal;font-variant:normal;font-weight:bold;font-stretch:normal;font-family:'Square721 BT';-inkscape-font-specification:'Square721 BT Bold'"
         d="m 348.39286,243.62616 6.75781,0 q 0.17578,1.13281 0.72266,1.5625 0.56641,0.42969 1.99219,0.42969 l 0.8789,0 q 1.54297,0 2.10938,-0.42969 0.58594,-0.42969 0.58594,-1.5625 0,-1.07422 -0.54688,-1.48438 -0.52734,-0.42968 -2.22656,-0.60546 l -4.19922,-0.39063 q -2.67578,-0.25391 -4.25781,-1.69922 -1.58203,-1.46484 -1.58203,-3.61328 l 0,-1.64062 q 0,-2.71485 1.95312,-4.1211 1.97266,-1.40625 5.72266,-1.40625 l 4.04297,0 q 3.49609,0 5.2539,1.34766 1.75781,1.32812 1.75781,4.0039 l 0,0.44922 -6.48437,0 q -0.0391,-0.85937 -0.64453,-1.26953 -0.58594,-0.41015 -1.83594,-0.41015 l -0.83984,0 q -1.34766,0 -1.91407,0.44921 -0.5664,0.44922 -0.5664,1.50391 0,0.87891 0.41015,1.25 0.41016,0.37109 1.50391,0.46875 l 4.64844,0.44922 q 3.22265,0.29297 4.76562,1.52344 1.54297,1.23047 1.54297,3.47656 l 0,1.75781 q 0,2.85156 -1.95312,4.49219 -1.95313,1.62109 -5.39063,1.62109 l -4.375,0 q -3.96484,0 -5.89844,-1.44531 -1.93359,-1.44531 -1.93359,-4.43359 l 0,-0.27344 z m -3.37891,-2.24609 q 0,0.15625 0.0195,0.48828 0.0195,0.3125 0.0195,0.46875 0,4.0039 -1.875,5.72265 -1.875,1.71875 -6.32813,1.71875 l -2.7539,0 q -4.51172,0 -6.34766,-1.875 -1.81641,-1.875 -1.81641,-6.5625 l 0,-4.23828 q 0,-4.66797 1.81641,-6.54297 1.83594,-1.89453 6.34766,-1.89453 l 2.7539,0 q 4.41406,0 6.28906,1.69922 1.875,1.69922 1.875,5.66406 l 0,0.54688 -6.5625,0 0,-0.19531 q 0,-1.58204 -0.54687,-2.1875 -0.52734,-0.60547 -1.93359,-0.60547 l -0.87891,0 q -1.48438,0 -1.99219,0.66406 -0.48828,0.66406 -0.48828,3.33984 l 0,3.28125 q 0,2.67578 0.48828,3.33985 0.50781,0.64453 1.99219,0.64453 l 0.87891,0 q 1.42578,0 1.95312,-0.625 0.52734,-0.64453 0.52734,-2.36328 l 0,-0.48828 6.5625,0 z m -30.35156,-15.83985 0,-5.11719 6.64063,0 0,5.11719 -6.64063,0 z m 0,23.96485 0,-20.56641 6.64063,0 0,20.56641 -6.64063,0 z m -23.86719,0 0,-20.56641 6.32813,0 -0.0781,2.92969 q 0.87891,-1.69922 2.2461,-2.44141 1.38672,-0.76172 3.63281,-0.76172 3.67188,0 5.07813,1.58203 1.40625,1.5625 1.40625,5.89844 l 0,13.35938 -6.52344,0 0,-11.91407 q 0,-2.24609 -0.52735,-2.91015 -0.50781,-0.66407 -2.40234,-0.66407 -1.50391,0 -2.07031,0.74219 -0.56641,0.72266 -0.56641,3.22266 l 0,11.52344 -6.52344,0 z m -17.08984,-11.91407 0,3.28125 q 0,2.67578 0.48828,3.33985 0.50781,0.64453 1.99219,0.64453 l 0.80078,0 q 1.46484,0 1.95313,-0.64453 0.48828,-0.64453 0.48828,-3.33985 l 0,-3.28125 q 0,-2.71484 -0.48828,-3.35937 -0.48829,-0.64453 -1.95313,-0.64453 l -0.80078,0 q -1.48438,0 -1.99219,0.66406 -0.48828,0.66406 -0.48828,3.33984 z m -6.67969,-0.48828 q 0,-4.66797 1.81641,-6.54297 1.83594,-1.89453 6.34766,-1.89453 l 2.7539,0 q 4.51172,0 6.32813,1.89453 1.83593,1.875 1.83593,6.54297 l 0,4.23828 q 0,4.6875 -1.83593,6.5625 -1.81641,1.875 -6.32813,1.875 l -2.7539,0 q -4.51172,0 -6.34766,-1.875 -1.81641,-1.875 -1.81641,-6.5625 l 0,-4.23828 z m -19.19922,12.40235 0,-20.56641 6.32813,0 -0.0781,2.92969 q 0.78125,-1.69922 1.95313,-2.44141 1.17187,-0.76172 3.04687,-0.76172 3.10547,0 4.31641,1.58203 1.21094,1.58203 1.21094,5.89844 l 0,1.83594 -6.13281,0 0,-1.3086 q 0,-1.48437 -0.44922,-2.07031 -0.42969,-0.58594 -1.58203,-0.58594 -1.21094,0 -1.66016,0.6836 -0.42969,0.68359 -0.42969,3.28125 l 0,11.52344 -6.52344,0 z m -17.24609,0 0,-22.59766 -7.48047,0 0,-6.48438 22.8125,0 0,6.48438 -7.4414,0 0,22.59766 -7.89063,0 z" />
    </g>
  </g>
</svg>
